<svg width="28" height="28" viewBox="0 0 28 28" fill="none" xmlns="http://www.w3.org/2000/svg">
<path fill-rule="evenodd" clip-rule="evenodd" d="M14 24.4999C19.7989 24.4999 24.5 19.7988 24.5 13.9999C24.5 8.201 19.7989 3.49992 14 3.49992C8.20106 3.49992 3.49998 8.201 3.49998 13.9999C3.49998 19.7988 8.20106 24.4999 14 24.4999ZM14 25.6666C20.4435 25.6666 25.6666 20.4434 25.6666 13.9999C25.6666 7.55642 20.4435 2.33325 14 2.33325C7.55648 2.33325 2.33331 7.55642 2.33331 13.9999C2.33331 20.4434 7.55648 25.6666 14 25.6666Z" fill="#333333"/>
<path d="M7 20.784C7 20.1815 7.45033 19.6722 8.05 19.6057C12.5504 19.1075 15.47 19.1525 19.9605 19.6168C20.1847 19.6403 20.3973 19.7287 20.5721 19.871C20.747 20.0134 20.8766 20.2036 20.9452 20.4184C21.0137 20.6332 21.0182 20.8633 20.9581 21.0806C20.898 21.2979 20.776 21.493 20.6068 21.6421C15.3073 26.2615 12.2786 26.198 7.37333 21.6468C7.13417 21.4251 7 21.1095 7 20.784Z" fill="#333333"/>
<path fill-rule="evenodd" clip-rule="evenodd" d="M19.9004 20.1967C15.4455 19.7359 12.5679 19.6927 8.11355 20.1857C7.96692 20.2027 7.83175 20.2733 7.73391 20.3839C7.63608 20.4944 7.58245 20.6371 7.5833 20.7847C7.5833 20.9516 7.65271 21.1097 7.76996 21.2193C10.2013 23.4745 12.0435 24.4936 13.8442 24.5C15.6514 24.5064 17.5927 23.4955 20.2235 21.203C20.3071 21.1286 20.3673 21.0315 20.3967 20.9236C20.4262 20.8156 20.4236 20.7015 20.3894 20.5949C20.3552 20.4884 20.2907 20.3941 20.2039 20.3235C20.1171 20.253 20.0116 20.2085 19.9004 20.1967ZM7.9858 19.026C12.5335 18.5226 15.4956 18.5681 20.0211 19.0365C20.3585 19.0717 20.6782 19.2045 20.9413 19.4187C21.2043 19.6328 21.3992 19.919 21.502 20.2422C21.6049 20.5654 21.6113 20.9116 21.5205 21.2383C21.4297 21.5651 21.2455 21.8583 20.9906 22.0821C18.3219 24.4084 16.0994 25.6754 13.8407 25.6667C11.5756 25.6585 9.45113 24.3699 6.97721 22.0745C6.80009 21.9095 6.65888 21.7098 6.56243 21.4878C6.46598 21.2657 6.41634 21.0262 6.41663 20.7842C6.41578 20.3492 6.57541 19.9293 6.86496 19.6048C7.1545 19.2803 7.5536 19.0745 7.9858 19.026Z" fill="#333333"/>
<path d="M18.6666 11.6667C18.6666 12.9043 18.175 14.0913 17.2998 14.9665C16.4246 15.8417 15.2377 16.3333 14 16.3333C12.7623 16.3333 11.5753 15.8417 10.7001 14.9665C9.82498 14.0913 9.33331 12.9043 9.33331 11.6667C9.33331 10.429 9.82498 9.242 10.7001 8.36683C11.5753 7.49167 12.7623 7 14 7C15.2377 7 16.4246 7.49167 17.2998 8.36683C18.175 9.242 18.6666 10.429 18.6666 11.6667Z" fill="#333333"/>
<path fill-rule="evenodd" clip-rule="evenodd" d="M14 15.1667C14.9282 15.1667 15.8185 14.7979 16.4749 14.1415C17.1312 13.4852 17.5 12.5949 17.5 11.6667C17.5 10.7384 17.1312 9.84817 16.4749 9.19179C15.8185 8.53542 14.9282 8.16667 14 8.16667C13.0717 8.16667 12.1815 8.53542 11.5251 9.19179C10.8687 9.84817 10.5 10.7384 10.5 11.6667C10.5 12.5949 10.8687 13.4852 11.5251 14.1415C12.1815 14.7979 13.0717 15.1667 14 15.1667ZM14 16.3333C15.2377 16.3333 16.4246 15.8417 17.2998 14.9665C18.175 14.0913 18.6666 12.9043 18.6666 11.6667C18.6666 10.429 18.175 9.242 17.2998 8.36683C16.4246 7.49167 15.2377 7 14 7C12.7623 7 11.5753 7.49167 10.7001 8.36683C9.82498 9.242 9.33331 10.429 9.33331 11.6667C9.33331 12.9043 9.82498 14.0913 10.7001 14.9665C11.5753 15.8417 12.7623 16.3333 14 16.3333Z" fill="#333333"/>
</svg>
