<svg width="1280" height="1098" viewBox="0 0 1280 1098" fill="none" xmlns="http://www.w3.org/2000/svg">
<path d="M0 134.5L449.5 0L1280 134.5V985.5L941.5 1097.5L0 985.5V134.5Z" fill="white" fill-opacity="0.9"/>
<path d="M0 134.5L449.5 0L1280 134.5V985.5L941.5 1097.5L0 985.5V134.5Z" fill="white" fill-opacity="0.9"/>
<path d="M1060.24 896.395C1058.6 896.395 1057.27 894.627 1057.27 892.447C1057.27 890.267 1058.6 888.5 1060.24 888.5C1061.88 888.5 1063.21 890.267 1063.21 892.447C1063.21 894.627 1061.88 896.395 1060.24 896.395Z" stroke="#10AEDB" stroke-opacity="0.2" stroke-width="2" stroke-miterlimit="10" stroke-linecap="round" stroke-linejoin="round"/>
<path d="M1076.88 909.026C1075.24 909.026 1073.91 907.259 1073.91 905.079C1073.91 902.899 1075.24 901.132 1076.88 901.132C1078.52 901.132 1079.85 902.899 1079.85 905.079C1079.85 907.259 1078.52 909.026 1076.88 909.026Z" stroke="#10AEDB" stroke-opacity="0.2" stroke-width="2" stroke-miterlimit="10" stroke-linecap="round" stroke-linejoin="round"/>
<path d="M1060.24 918.5C1058.6 918.5 1057.27 916.733 1057.27 914.553C1057.27 912.373 1058.6 910.605 1060.24 910.605C1061.88 910.605 1063.21 912.373 1063.21 914.553C1063.21 916.733 1061.88 918.5 1060.24 918.5Z" stroke="#10AEDB" stroke-opacity="0.2" stroke-width="2" stroke-miterlimit="10" stroke-linecap="round" stroke-linejoin="round"/>
<path d="M1073.91 906.658L1063.21 912.974" stroke="#10AEDB" stroke-opacity="0.2" stroke-width="2" stroke-miterlimit="10" stroke-linecap="round" stroke-linejoin="round"/>
<path d="M1063.21 894.816L1073.91 902.711" stroke="#10AEDB" stroke-opacity="0.2" stroke-width="2" stroke-miterlimit="10" stroke-linecap="round" stroke-linejoin="round"/>
<path d="M497.727 624.395C499.378 624.395 500.716 622.627 500.716 620.447C500.716 618.267 499.378 616.5 497.727 616.5C496.076 616.5 494.738 618.267 494.738 620.447C494.738 622.627 496.076 624.395 497.727 624.395Z" stroke="#10AEDB" stroke-opacity="0.2" stroke-width="2" stroke-miterlimit="10" stroke-linecap="round" stroke-linejoin="round"/>
<path d="M480.989 637.026C482.64 637.026 483.978 635.259 483.978 633.079C483.978 630.899 482.64 629.132 480.989 629.132C479.338 629.132 478 630.899 478 633.079C478 635.259 479.338 637.026 480.989 637.026Z" stroke="#10AEDB" stroke-opacity="0.2" stroke-width="2" stroke-miterlimit="10" stroke-linecap="round" stroke-linejoin="round"/>
<path d="M497.727 646.5C499.378 646.5 500.716 644.733 500.716 642.553C500.716 640.373 499.378 638.605 497.727 638.605C496.076 638.605 494.738 640.373 494.738 642.553C494.738 644.733 496.076 646.5 497.727 646.5Z" stroke="#10AEDB" stroke-opacity="0.2" stroke-width="2" stroke-miterlimit="10" stroke-linecap="round" stroke-linejoin="round"/>
<path d="M483.978 634.658L494.738 640.974" stroke="#10AEDB" stroke-opacity="0.2" stroke-width="2" stroke-miterlimit="10" stroke-linecap="round" stroke-linejoin="round"/>
<path d="M494.738 622.816L483.978 630.711" stroke="#10AEDB" stroke-opacity="0.2" stroke-width="2" stroke-miterlimit="10" stroke-linecap="round" stroke-linejoin="round"/>
<path d="M996.199 370.789C996.199 370.56 996.19 369.809 996.19 368.876C996.19 368.225 996.406 367.799 996.649 367.583C995.115 367.405 993.502 366.806 993.502 364.126C993.502 363.363 993.772 362.739 994.213 362.25C994.142 362.073 993.904 361.362 994.281 360.399C994.281 360.399 994.861 360.211 996.182 361.116C996.733 360.961 997.324 360.883 997.913 360.881C998.5 360.883 999.091 360.961 999.644 361.116C1000.96 360.211 1001.54 360.399 1001.54 360.399C1001.92 361.362 1001.68 362.073 1001.61 362.25C1002.05 362.739 1002.32 363.362 1002.32 364.126C1002.32 366.812 1000.71 367.404 999.164 367.576C999.414 367.793 999.634 368.219 999.634 368.872C999.634 369.807 999.626 370.56 999.626 370.789C999.626 370.977 999.75 371.193 1000.1 371.126C1002.85 370.2 1004.82 367.58 1004.82 364.492C1004.82 360.63 1001.73 357.5 997.911 357.5C994.095 357.5 991 360.63 991 364.492C991 367.581 992.98 370.202 995.73 371.127C996.073 371.191 996.199 370.975 996.199 370.789Z" stroke="#592251" stroke-opacity="0.5" stroke-width="2" stroke-miterlimit="10" stroke-linecap="round" stroke-linejoin="round"/>
<path d="M993.057 367.458C993.69 367.65 993.94 367.861 994.237 368.36C994.534 368.859 994.882 369.416 996.191 369.099" stroke="#592251" stroke-opacity="0.5" stroke-width="2" stroke-miterlimit="10" stroke-linecap="round" stroke-linejoin="round"/>
<path d="M1014.2 387.789C1014.2 387.56 1014.19 386.809 1014.19 385.876C1014.19 385.225 1014.41 384.799 1014.65 384.583C1013.12 384.405 1011.5 383.806 1011.5 381.126C1011.5 380.363 1011.77 379.739 1012.21 379.25C1012.14 379.073 1011.9 378.362 1012.28 377.399C1012.28 377.399 1012.86 377.211 1014.18 378.116C1014.73 377.961 1015.32 377.883 1015.91 377.881C1016.5 377.883 1017.09 377.961 1017.64 378.116C1018.96 377.211 1019.54 377.399 1019.54 377.399C1019.92 378.362 1019.68 379.073 1019.61 379.25C1020.05 379.739 1020.32 380.362 1020.32 381.126C1020.32 383.812 1018.71 384.404 1017.16 384.576C1017.41 384.793 1017.63 385.219 1017.63 385.872C1017.63 386.807 1017.63 387.56 1017.63 387.789C1017.63 387.977 1017.75 388.193 1018.1 388.126C1020.85 387.2 1022.82 384.58 1022.82 381.492C1022.82 377.63 1019.73 374.5 1015.91 374.5C1012.09 374.5 1009 377.63 1009 381.492C1009 384.581 1010.98 387.202 1013.73 388.127C1014.07 388.191 1014.2 387.975 1014.2 387.789Z" stroke="#592251" stroke-opacity="0.5" stroke-width="2" stroke-miterlimit="10" stroke-linecap="round" stroke-linejoin="round"/>
<path d="M1011.06 384.458C1011.69 384.65 1011.94 384.861 1012.24 385.36C1012.53 385.859 1012.88 386.416 1014.19 386.099" stroke="#592251" stroke-opacity="0.5" stroke-width="2" stroke-miterlimit="10" stroke-linecap="round" stroke-linejoin="round"/>
<path d="M996.199 387.789C996.199 387.56 996.19 386.809 996.19 385.876C996.19 385.225 996.406 384.799 996.649 384.583C995.115 384.405 993.502 383.806 993.502 381.126C993.502 380.363 993.772 379.739 994.213 379.25C994.142 379.073 993.904 378.362 994.281 377.399C994.281 377.399 994.861 377.211 996.182 378.116C996.733 377.961 997.324 377.883 997.913 377.881C998.5 377.883 999.091 377.961 999.644 378.116C1000.96 377.211 1001.54 377.399 1001.54 377.399C1001.92 378.362 1001.68 379.073 1001.61 379.25C1002.05 379.739 1002.32 380.362 1002.32 381.126C1002.32 383.812 1000.71 384.404 999.164 384.576C999.414 384.793 999.634 385.219 999.634 385.872C999.634 386.807 999.626 387.56 999.626 387.789C999.626 387.977 999.75 388.193 1000.1 388.126C1002.85 387.2 1004.82 384.58 1004.82 381.492C1004.82 377.63 1001.73 374.5 997.911 374.5C994.095 374.5 991 377.63 991 381.492C991 384.581 992.98 387.202 995.73 388.127C996.073 388.191 996.199 387.975 996.199 387.789Z" stroke="#592251" stroke-opacity="0.5" stroke-width="2" stroke-miterlimit="10" stroke-linecap="round" stroke-linejoin="round"/>
<path d="M993.057 384.458C993.69 384.65 993.94 384.861 994.237 385.36C994.534 385.859 994.882 386.416 996.191 386.099" stroke="#592251" stroke-opacity="0.5" stroke-width="2" stroke-miterlimit="10" stroke-linecap="round" stroke-linejoin="round"/>
<path d="M1014.2 370.789C1014.2 370.56 1014.19 369.809 1014.19 368.876C1014.19 368.225 1014.41 367.799 1014.65 367.583C1013.12 367.405 1011.5 366.806 1011.5 364.126C1011.5 363.363 1011.77 362.739 1012.21 362.25C1012.14 362.073 1011.9 361.362 1012.28 360.399C1012.28 360.399 1012.86 360.211 1014.18 361.116C1014.73 360.961 1015.32 360.883 1015.91 360.881C1016.5 360.883 1017.09 360.961 1017.64 361.116C1018.96 360.211 1019.54 360.399 1019.54 360.399C1019.92 361.362 1019.68 362.073 1019.61 362.25C1020.05 362.739 1020.32 363.362 1020.32 364.126C1020.32 366.812 1018.71 367.404 1017.16 367.576C1017.41 367.793 1017.63 368.219 1017.63 368.872C1017.63 369.807 1017.63 370.56 1017.63 370.789C1017.63 370.977 1017.75 371.193 1018.1 371.126C1020.85 370.2 1022.82 367.58 1022.82 364.492C1022.82 360.63 1019.73 357.5 1015.91 357.5C1012.09 357.5 1009 360.63 1009 364.492C1009 367.581 1010.98 370.202 1013.73 371.127C1014.07 371.191 1014.2 370.975 1014.2 370.789Z" stroke="#592251" stroke-opacity="0.5" stroke-width="2" stroke-miterlimit="10" stroke-linecap="round" stroke-linejoin="round"/>
<path d="M1011.06 367.458C1011.69 367.65 1011.94 367.861 1012.24 368.36C1012.53 368.859 1012.88 369.416 1014.19 369.099" stroke="#592251" stroke-opacity="0.5" stroke-width="2" stroke-miterlimit="10" stroke-linecap="round" stroke-linejoin="round"/>
<path d="M1032.2 370.789C1032.2 370.56 1032.19 369.809 1032.19 368.876C1032.19 368.225 1032.41 367.799 1032.65 367.583C1031.12 367.405 1029.5 366.806 1029.5 364.126C1029.5 363.363 1029.77 362.739 1030.21 362.25C1030.14 362.073 1029.9 361.362 1030.28 360.399C1030.28 360.399 1030.86 360.211 1032.18 361.116C1032.73 360.961 1033.32 360.883 1033.91 360.881C1034.5 360.883 1035.09 360.961 1035.64 361.116C1036.96 360.211 1037.54 360.399 1037.54 360.399C1037.92 361.362 1037.68 362.073 1037.61 362.25C1038.05 362.739 1038.32 363.362 1038.32 364.126C1038.32 366.812 1036.71 367.404 1035.16 367.576C1035.41 367.793 1035.63 368.219 1035.63 368.872C1035.63 369.807 1035.63 370.56 1035.63 370.789C1035.63 370.977 1035.75 371.193 1036.1 371.126C1038.85 370.2 1040.82 367.58 1040.82 364.492C1040.82 360.63 1037.73 357.5 1033.91 357.5C1030.09 357.5 1027 360.63 1027 364.492C1027 367.581 1028.98 370.202 1031.73 371.127C1032.07 371.191 1032.2 370.975 1032.2 370.789Z" stroke="#592251" stroke-opacity="0.5" stroke-width="2" stroke-miterlimit="10" stroke-linecap="round" stroke-linejoin="round"/>
<path d="M1029.06 367.458C1029.69 367.65 1029.94 367.861 1030.24 368.36C1030.53 368.859 1030.88 369.416 1032.19 369.099" stroke="#592251" stroke-opacity="0.5" stroke-width="2" stroke-miterlimit="10" stroke-linecap="round" stroke-linejoin="round"/>
<path d="M1050.2 387.789C1050.2 387.56 1050.19 386.809 1050.19 385.876C1050.19 385.225 1050.41 384.799 1050.65 384.583C1049.12 384.405 1047.5 383.806 1047.5 381.126C1047.5 380.363 1047.77 379.739 1048.21 379.25C1048.14 379.073 1047.9 378.362 1048.28 377.399C1048.28 377.399 1048.86 377.211 1050.18 378.116C1050.73 377.961 1051.32 377.883 1051.91 377.881C1052.5 377.883 1053.09 377.961 1053.64 378.116C1054.96 377.211 1055.54 377.399 1055.54 377.399C1055.92 378.362 1055.68 379.073 1055.61 379.25C1056.05 379.739 1056.32 380.362 1056.32 381.126C1056.32 383.812 1054.71 384.404 1053.16 384.576C1053.41 384.793 1053.63 385.219 1053.63 385.872C1053.63 386.807 1053.63 387.56 1053.63 387.789C1053.63 387.977 1053.75 388.193 1054.1 388.126C1056.85 387.2 1058.82 384.58 1058.82 381.492C1058.82 377.63 1055.73 374.5 1051.91 374.5C1048.09 374.5 1045 377.63 1045 381.492C1045 384.581 1046.98 387.202 1049.73 388.127C1050.07 388.191 1050.2 387.975 1050.2 387.789Z" stroke="#592251" stroke-opacity="0.5" stroke-width="2" stroke-miterlimit="10" stroke-linecap="round" stroke-linejoin="round"/>
<path d="M1047.06 384.458C1047.69 384.65 1047.94 384.861 1048.24 385.36C1048.53 385.859 1048.88 386.416 1050.19 386.099" stroke="#592251" stroke-opacity="0.5" stroke-width="2" stroke-miterlimit="10" stroke-linecap="round" stroke-linejoin="round"/>
<path d="M1032.2 387.789C1032.2 387.56 1032.19 386.809 1032.19 385.876C1032.19 385.225 1032.41 384.799 1032.65 384.583C1031.12 384.405 1029.5 383.806 1029.5 381.126C1029.5 380.363 1029.77 379.739 1030.21 379.25C1030.14 379.073 1029.9 378.362 1030.28 377.399C1030.28 377.399 1030.86 377.211 1032.18 378.116C1032.73 377.961 1033.32 377.883 1033.91 377.881C1034.5 377.883 1035.09 377.961 1035.64 378.116C1036.96 377.211 1037.54 377.399 1037.54 377.399C1037.92 378.362 1037.68 379.073 1037.61 379.25C1038.05 379.739 1038.32 380.362 1038.32 381.126C1038.32 383.812 1036.71 384.404 1035.16 384.576C1035.41 384.793 1035.63 385.219 1035.63 385.872C1035.63 386.807 1035.63 387.56 1035.63 387.789C1035.63 387.977 1035.75 388.193 1036.1 388.126C1038.85 387.2 1040.82 384.58 1040.82 381.492C1040.82 377.63 1037.73 374.5 1033.91 374.5C1030.09 374.5 1027 377.63 1027 381.492C1027 384.581 1028.98 387.202 1031.73 388.127C1032.07 388.191 1032.2 387.975 1032.2 387.789Z" stroke="#592251" stroke-opacity="0.5" stroke-width="2" stroke-miterlimit="10" stroke-linecap="round" stroke-linejoin="round"/>
<path d="M1029.06 384.458C1029.69 384.65 1029.94 384.861 1030.24 385.36C1030.53 385.859 1030.88 386.416 1032.19 386.099" stroke="#592251" stroke-opacity="0.5" stroke-width="2" stroke-miterlimit="10" stroke-linecap="round" stroke-linejoin="round"/>
<path d="M1050.2 370.789C1050.2 370.56 1050.19 369.809 1050.19 368.876C1050.19 368.225 1050.41 367.799 1050.65 367.583C1049.12 367.405 1047.5 366.806 1047.5 364.126C1047.5 363.363 1047.77 362.739 1048.21 362.25C1048.14 362.073 1047.9 361.362 1048.28 360.399C1048.28 360.399 1048.86 360.211 1050.18 361.116C1050.73 360.961 1051.32 360.883 1051.91 360.881C1052.5 360.883 1053.09 360.961 1053.64 361.116C1054.96 360.211 1055.54 360.399 1055.54 360.399C1055.92 361.362 1055.68 362.073 1055.61 362.25C1056.05 362.739 1056.32 363.362 1056.32 364.126C1056.32 366.812 1054.71 367.404 1053.16 367.576C1053.41 367.793 1053.63 368.219 1053.63 368.872C1053.63 369.807 1053.63 370.56 1053.63 370.789C1053.63 370.977 1053.75 371.193 1054.1 371.126C1056.85 370.2 1058.82 367.58 1058.82 364.492C1058.82 360.63 1055.73 357.5 1051.91 357.5C1048.09 357.5 1045 360.63 1045 364.492C1045 367.581 1046.98 370.202 1049.73 371.127C1050.07 371.191 1050.2 370.975 1050.2 370.789Z" stroke="#592251" stroke-opacity="0.5" stroke-width="2" stroke-miterlimit="10" stroke-linecap="round" stroke-linejoin="round"/>
<path d="M1047.06 367.458C1047.69 367.65 1047.94 367.861 1048.24 368.36C1048.53 368.859 1048.88 369.416 1050.19 369.099" stroke="#592251" stroke-opacity="0.5" stroke-width="2" stroke-miterlimit="10" stroke-linecap="round" stroke-linejoin="round"/>
<path d="M278.199 776.789C278.199 776.56 278.19 775.809 278.19 774.876C278.19 774.225 278.406 773.799 278.649 773.583C277.115 773.405 275.502 772.806 275.502 770.126C275.502 769.363 275.772 768.739 276.213 768.25C276.142 768.073 275.904 767.362 276.281 766.399C276.281 766.399 276.861 766.211 278.182 767.116C278.733 766.961 279.324 766.883 279.913 766.881C280.5 766.883 281.091 766.961 281.644 767.116C282.963 766.211 283.543 766.399 283.543 766.399C283.92 767.362 283.683 768.073 283.611 768.25C284.054 768.739 284.321 769.362 284.321 770.126C284.321 772.812 282.705 773.404 281.164 773.576C281.414 773.793 281.634 774.219 281.634 774.872C281.634 775.807 281.626 776.56 281.626 776.789C281.626 776.977 281.75 777.193 282.101 777.126C284.846 776.2 286.825 773.58 286.825 770.492C286.825 766.63 283.729 763.5 279.911 763.5C276.095 763.5 273 766.63 273 770.492C273 773.581 274.98 776.202 277.73 777.127C278.073 777.191 278.199 776.975 278.199 776.789Z" stroke="#592251" stroke-opacity="0.5" stroke-width="2" stroke-miterlimit="10" stroke-linecap="round" stroke-linejoin="round"/>
<path d="M275.057 773.458C275.69 773.65 275.94 773.861 276.237 774.36C276.534 774.859 276.882 775.416 278.191 775.099" stroke="#592251" stroke-opacity="0.5" stroke-width="2" stroke-miterlimit="10" stroke-linecap="round" stroke-linejoin="round"/>
<path d="M296.199 793.789C296.199 793.56 296.19 792.809 296.19 791.876C296.19 791.225 296.406 790.799 296.649 790.583C295.115 790.405 293.502 789.806 293.502 787.126C293.502 786.363 293.772 785.739 294.213 785.25C294.142 785.073 293.904 784.362 294.281 783.399C294.281 783.399 294.861 783.211 296.182 784.116C296.733 783.961 297.324 783.883 297.913 783.881C298.5 783.883 299.091 783.961 299.644 784.116C300.963 783.211 301.543 783.399 301.543 783.399C301.92 784.362 301.683 785.073 301.611 785.25C302.054 785.739 302.321 786.362 302.321 787.126C302.321 789.812 300.705 790.404 299.164 790.576C299.414 790.793 299.634 791.219 299.634 791.872C299.634 792.807 299.626 793.56 299.626 793.789C299.626 793.977 299.75 794.193 300.101 794.126C302.846 793.2 304.825 790.58 304.825 787.492C304.825 783.63 301.729 780.5 297.911 780.5C294.095 780.5 291 783.63 291 787.492C291 790.581 292.98 793.202 295.73 794.127C296.073 794.191 296.199 793.975 296.199 793.789Z" stroke="#592251" stroke-opacity="0.5" stroke-width="2" stroke-miterlimit="10" stroke-linecap="round" stroke-linejoin="round"/>
<path d="M293.057 790.458C293.69 790.65 293.94 790.861 294.237 791.36C294.534 791.859 294.882 792.416 296.191 792.099" stroke="#592251" stroke-opacity="0.5" stroke-width="2" stroke-miterlimit="10" stroke-linecap="round" stroke-linejoin="round"/>
<path d="M278.199 793.789C278.199 793.56 278.19 792.809 278.19 791.876C278.19 791.225 278.406 790.799 278.649 790.583C277.115 790.405 275.502 789.806 275.502 787.126C275.502 786.363 275.772 785.739 276.213 785.25C276.142 785.073 275.904 784.362 276.281 783.399C276.281 783.399 276.861 783.211 278.182 784.116C278.733 783.961 279.324 783.883 279.913 783.881C280.5 783.883 281.091 783.961 281.644 784.116C282.963 783.211 283.543 783.399 283.543 783.399C283.92 784.362 283.683 785.073 283.611 785.25C284.054 785.739 284.321 786.362 284.321 787.126C284.321 789.812 282.705 790.404 281.164 790.576C281.414 790.793 281.634 791.219 281.634 791.872C281.634 792.807 281.626 793.56 281.626 793.789C281.626 793.977 281.75 794.193 282.101 794.126C284.846 793.2 286.825 790.58 286.825 787.492C286.825 783.63 283.729 780.5 279.911 780.5C276.095 780.5 273 783.63 273 787.492C273 790.581 274.98 793.202 277.73 794.127C278.073 794.191 278.199 793.975 278.199 793.789Z" stroke="#592251" stroke-opacity="0.5" stroke-width="2" stroke-miterlimit="10" stroke-linecap="round" stroke-linejoin="round"/>
<path d="M275.057 790.458C275.69 790.65 275.94 790.861 276.237 791.36C276.534 791.859 276.882 792.416 278.191 792.099" stroke="#592251" stroke-opacity="0.5" stroke-width="2" stroke-miterlimit="10" stroke-linecap="round" stroke-linejoin="round"/>
<path d="M296.199 776.789C296.199 776.56 296.19 775.809 296.19 774.876C296.19 774.225 296.406 773.799 296.649 773.583C295.115 773.405 293.502 772.806 293.502 770.126C293.502 769.363 293.772 768.739 294.213 768.25C294.142 768.073 293.904 767.362 294.281 766.399C294.281 766.399 294.861 766.211 296.182 767.116C296.733 766.961 297.324 766.883 297.913 766.881C298.5 766.883 299.091 766.961 299.644 767.116C300.963 766.211 301.543 766.399 301.543 766.399C301.92 767.362 301.683 768.073 301.611 768.25C302.054 768.739 302.321 769.362 302.321 770.126C302.321 772.812 300.705 773.404 299.164 773.576C299.414 773.793 299.634 774.219 299.634 774.872C299.634 775.807 299.626 776.56 299.626 776.789C299.626 776.977 299.75 777.193 300.101 777.126C302.846 776.2 304.825 773.58 304.825 770.492C304.825 766.63 301.729 763.5 297.911 763.5C294.095 763.5 291 766.63 291 770.492C291 773.581 292.98 776.202 295.73 777.127C296.073 777.191 296.199 776.975 296.199 776.789Z" stroke="#592251" stroke-opacity="0.5" stroke-width="2" stroke-miterlimit="10" stroke-linecap="round" stroke-linejoin="round"/>
<path d="M293.057 773.458C293.69 773.65 293.94 773.861 294.237 774.36C294.534 774.859 294.882 775.416 296.191 775.099" stroke="#592251" stroke-opacity="0.5" stroke-width="2" stroke-miterlimit="10" stroke-linecap="round" stroke-linejoin="round"/>
<path d="M314.199 776.789C314.199 776.56 314.19 775.809 314.19 774.876C314.19 774.225 314.406 773.799 314.649 773.583C313.115 773.405 311.502 772.806 311.502 770.126C311.502 769.363 311.772 768.739 312.213 768.25C312.142 768.073 311.904 767.362 312.281 766.399C312.281 766.399 312.861 766.211 314.182 767.116C314.733 766.961 315.324 766.883 315.913 766.881C316.5 766.883 317.091 766.961 317.644 767.116C318.963 766.211 319.543 766.399 319.543 766.399C319.92 767.362 319.683 768.073 319.611 768.25C320.054 768.739 320.321 769.362 320.321 770.126C320.321 772.812 318.705 773.404 317.164 773.576C317.414 773.793 317.634 774.219 317.634 774.872C317.634 775.807 317.626 776.56 317.626 776.789C317.626 776.977 317.75 777.193 318.101 777.126C320.846 776.2 322.825 773.58 322.825 770.492C322.825 766.63 319.729 763.5 315.911 763.5C312.095 763.5 309 766.63 309 770.492C309 773.581 310.98 776.202 313.73 777.127C314.073 777.191 314.199 776.975 314.199 776.789Z" stroke="#592251" stroke-opacity="0.5" stroke-width="2" stroke-miterlimit="10" stroke-linecap="round" stroke-linejoin="round"/>
<path d="M311.057 773.458C311.69 773.65 311.94 773.861 312.237 774.36C312.534 774.859 312.882 775.416 314.191 775.099" stroke="#592251" stroke-opacity="0.5" stroke-width="2" stroke-miterlimit="10" stroke-linecap="round" stroke-linejoin="round"/>
<path d="M332.199 793.789C332.199 793.56 332.19 792.809 332.19 791.876C332.19 791.225 332.406 790.799 332.649 790.583C331.115 790.405 329.502 789.806 329.502 787.126C329.502 786.363 329.772 785.739 330.213 785.25C330.142 785.073 329.904 784.362 330.281 783.399C330.281 783.399 330.861 783.211 332.182 784.116C332.733 783.961 333.324 783.883 333.913 783.881C334.5 783.883 335.091 783.961 335.644 784.116C336.963 783.211 337.543 783.399 337.543 783.399C337.92 784.362 337.683 785.073 337.611 785.25C338.054 785.739 338.321 786.362 338.321 787.126C338.321 789.812 336.705 790.404 335.164 790.576C335.414 790.793 335.634 791.219 335.634 791.872C335.634 792.807 335.626 793.56 335.626 793.789C335.626 793.977 335.75 794.193 336.101 794.126C338.846 793.2 340.825 790.58 340.825 787.492C340.825 783.63 337.729 780.5 333.911 780.5C330.095 780.5 327 783.63 327 787.492C327 790.581 328.98 793.202 331.73 794.127C332.073 794.191 332.199 793.975 332.199 793.789Z" stroke="#592251" stroke-opacity="0.5" stroke-width="2" stroke-miterlimit="10" stroke-linecap="round" stroke-linejoin="round"/>
<path d="M329.057 790.458C329.69 790.65 329.94 790.861 330.237 791.36C330.534 791.859 330.882 792.416 332.191 792.099" stroke="#592251" stroke-opacity="0.5" stroke-width="2" stroke-miterlimit="10" stroke-linecap="round" stroke-linejoin="round"/>
<path d="M314.199 793.789C314.199 793.56 314.19 792.809 314.19 791.876C314.19 791.225 314.406 790.799 314.649 790.583C313.115 790.405 311.502 789.806 311.502 787.126C311.502 786.363 311.772 785.739 312.213 785.25C312.142 785.073 311.904 784.362 312.281 783.399C312.281 783.399 312.861 783.211 314.182 784.116C314.733 783.961 315.324 783.883 315.913 783.881C316.5 783.883 317.091 783.961 317.644 784.116C318.963 783.211 319.543 783.399 319.543 783.399C319.92 784.362 319.683 785.073 319.611 785.25C320.054 785.739 320.321 786.362 320.321 787.126C320.321 789.812 318.705 790.404 317.164 790.576C317.414 790.793 317.634 791.219 317.634 791.872C317.634 792.807 317.626 793.56 317.626 793.789C317.626 793.977 317.75 794.193 318.101 794.126C320.846 793.2 322.825 790.58 322.825 787.492C322.825 783.63 319.729 780.5 315.911 780.5C312.095 780.5 309 783.63 309 787.492C309 790.581 310.98 793.202 313.73 794.127C314.073 794.191 314.199 793.975 314.199 793.789Z" stroke="#592251" stroke-opacity="0.5" stroke-width="2" stroke-miterlimit="10" stroke-linecap="round" stroke-linejoin="round"/>
<path d="M311.057 790.458C311.69 790.65 311.94 790.861 312.237 791.36C312.534 791.859 312.882 792.416 314.191 792.099" stroke="#592251" stroke-opacity="0.5" stroke-width="2" stroke-miterlimit="10" stroke-linecap="round" stroke-linejoin="round"/>
<path d="M332.199 776.789C332.199 776.56 332.19 775.809 332.19 774.876C332.19 774.225 332.406 773.799 332.649 773.583C331.115 773.405 329.502 772.806 329.502 770.126C329.502 769.363 329.772 768.739 330.213 768.25C330.142 768.073 329.904 767.362 330.281 766.399C330.281 766.399 330.861 766.211 332.182 767.116C332.733 766.961 333.324 766.883 333.913 766.881C334.5 766.883 335.091 766.961 335.644 767.116C336.963 766.211 337.543 766.399 337.543 766.399C337.92 767.362 337.683 768.073 337.611 768.25C338.054 768.739 338.321 769.362 338.321 770.126C338.321 772.812 336.705 773.404 335.164 773.576C335.414 773.793 335.634 774.219 335.634 774.872C335.634 775.807 335.626 776.56 335.626 776.789C335.626 776.977 335.75 777.193 336.101 777.126C338.846 776.2 340.825 773.58 340.825 770.492C340.825 766.63 337.729 763.5 333.911 763.5C330.095 763.5 327 766.63 327 770.492C327 773.581 328.98 776.202 331.73 777.127C332.073 777.191 332.199 776.975 332.199 776.789Z" stroke="#592251" stroke-opacity="0.5" stroke-width="2" stroke-miterlimit="10" stroke-linecap="round" stroke-linejoin="round"/>
<path d="M329.057 773.458C329.69 773.65 329.94 773.861 330.237 774.36C330.534 774.859 330.882 775.416 332.191 775.099" stroke="#592251" stroke-opacity="0.5" stroke-width="2" stroke-miterlimit="10" stroke-linecap="round" stroke-linejoin="round"/>
<path d="M485.412 305.933L479.689 308.366L476.263 300.678L470.013 303.336L470.039 278.502L488.98 295.271L481.985 298.245L485.412 305.933Z" fill="white"/>
<path d="M484.081 297.623L488.982 295.272L470.041 278.502L484.081 297.623Z" fill="#D0CFCE" fill-opacity="0.2"/>
<path d="M470.027 278.5L489 295.269L481.994 298.243L485.425 305.93L479.692 308.363L476.261 300.676L470 303.334L470.027 278.5Z" stroke="#10AEDB" stroke-opacity="0.2" stroke-width="2" stroke-linejoin="round"/>
</svg>
